HIERARCHY
ROOT root
{
	OFFSET 0.000000 0.000000 0.000000
	CHANNELS 6 Xposition Yposition Zposition Zrotation Yrotation Xrotation
	JOINT lhip
	{
		OFFSET 0.058581 -0.082280 -0.017664
		CHANNELS 3 Zrotation Yrotation Xrotation
		JOINT lknee
		{
			OFFSET 0.043451 -0.386469 0.008037
			CHANNELS 3 Zrotation Yrotation Xrotation
			JOINT lankle
			{
				OFFSET -0.014790 -0.426874 -0.037428
				CHANNELS 3 Zrotation Yrotation Xrotation
				JOINT ltoe
				{
					OFFSET 0.041054 -0.060286 0.122042
					CHANNELS 3 Zrotation Yrotation Xrotation
					End Site
					{
						OFFSET 0.000000 0.000000 0.000000
					}
				}
			}
		}
	}
	JOINT rhip
	{
		OFFSET -0.060310 -0.090513 -0.013543
		CHANNELS 3 Zrotation Yrotation Xrotation
		JOINT rknee
		{
			OFFSET -0.043257 -0.383688 -0.004843
			CHANNELS 3 Zrotation Yrotation Xrotation
			JOINT rankle
			{
				OFFSET 0.019056 -0.420046 -0.034562
				CHANNELS 3 Zrotation Yrotation Xrotation
				JOINT rtoe
				{
					OFFSET -0.034840 -0.062106 0.130323
					CHANNELS 3 Zrotation Yrotation Xrotation
					End Site
					{
						OFFSET 0.000000 0.000000 0.000000
					}
				}
			}
		}
	}
	JOINT lowerback
	{
		OFFSET 0.004439 0.124404 -0.038385
		CHANNELS 3 Zrotation Yrotation Xrotation
		JOINT upperback
		{
			OFFSET 0.004488 0.137956 0.026820
			CHANNELS 3 Zrotation Yrotation Xrotation
			JOINT chest
			{
				OFFSET -0.002265 0.056032 0.002855
				CHANNELS 3 Zrotation Yrotation Xrotation
				JOINT lowerneck
				{
					OFFSET -0.013390 0.211636 -0.033468
					CHANNELS 3 Zrotation Yrotation Xrotation
					JOINT upperneck
					{
						OFFSET 0.010113 0.088937 0.050410
						CHANNELS 3 Zrotation Yrotation Xrotation
						End Site
						{
							OFFSET 0.000000 0.000000 0.000000
						}
					}
				}
				JOINT lclavicle
				{
					OFFSET 0.071702 0.114000 -0.018898
					CHANNELS 3 Zrotation Yrotation Xrotation
					JOINT lshoulder
					{
						OFFSET 0.122921 0.045205 -0.019046
						CHANNELS 3 Zrotation Yrotation Xrotation
						JOINT lelbow
						{
							OFFSET 0.255332 -0.015649 -0.022946
							CHANNELS 3 Zrotation Yrotation Xrotation
							JOINT lwrist
							{
								OFFSET 0.265709 0.012698 -0.007375
								CHANNELS 3 Zrotation Yrotation Xrotation
								End Site
								{
									OFFSET 0.000000 0.000000 0.000000
								}
							}
						}
					}
				}
				JOINT rclavicle
				{
					OFFSET -0.082954 0.112472 -0.023707
					CHANNELS 3 Zrotation Yrotation Xrotation
					JOINT rshoulder
					{
						OFFSET -0.113228 0.046853 -0.008472
						CHANNELS 3 Zrotation Yrotation Xrotation
						JOINT relbow
						{
							OFFSET -0.260127 -0.014369 -0.031269
							CHANNELS 3 Zrotation Yrotation Xrotation
							JOINT rwrist
							{
								OFFSET -0.269108 0.006794 -0.006027
								CHANNELS 3 Zrotation Yrotation Xrotation
								End Site
								{
									OFFSET 0.000000 0.000000 0.000000
								}
							}
						}
					}
				}
			}
		}
	}
}
MOTION
Frames: 6
Frame Time: 0.033333
0.444330 0.177947 0.990187 91.102799 2.374904 94.282754 4.758182 2.969625 -1.761035 2.753208 -4.912697 -6.485919 -1.124550 9.246041 -3.692375 0.000000 -0.000000 0.000000 -1.779268 -2.693210 -4.417616 -1.192828 3.348399 0.536736 5.100583 -5.986510 -4.486407 0.000000 -0.000000 0.000000 -0.325994 2.133390 -1.166374 2.864917 -2.512307 1.640181 -0.797396 1.816112 -8.301572 -1.128085 -7.894030 8.204189 3.396764 -8.686742 -0.061315 -23.684029 2.993223 -5.345074 -58.605333 -3.757114 29.035609 -1.077179 -18.128577 20.467787 -9.980444 -7.721799 17.087457 25.731534 2.777414 -2.780792 52.950933 3.705689 21.828537 0.275270 12.861936 9.618614 6.727271 2.492818 8.365454 
0.444559 0.177827 0.990140 91.163730 2.419803 94.259242 4.818055 2.917532 -1.709705 2.757532 -4.924404 -6.520778 -1.140650 9.295578 -3.691095 0.000000 -0.000000 0.000000 -1.719717 -2.745990 -4.310021 -1.210184 3.401403 0.427296 5.258797 -6.057585 -4.471971 0.000000 -0.000000 0.000000 -0.361742 2.184227 -1.193092 2.881178 -2.668310 1.491190 -0.733891 1.808828 -8.096562 -1.102044 -7.911745 8.214675 3.425055 -8.610932 -0.149930 -23.587512 2.978806 -5.346789 -58.709221 -3.725896 28.929490 -1.035889 -18.116850 20.645404 -9.964851 -7.768034 17.017408 25.787408 2.941848 -2.653500 52.903582 3.722483 21.704277 0.191002 12.792097 9.563596 6.774186 2.552475 8.460859 
0.444631 0.177829 0.990141 91.133867 2.438305 94.232796 4.842050 2.951473 -1.627695 2.783028 -5.055580 -6.614664 -1.168966 9.405428 -3.705815 0.000000 -0.000000 0.000000 -1.690299 -2.782261 -4.271050 -1.212129 3.537794 0.375618 5.307103 -6.146972 -4.512047 0.000000 -0.000000 0.000000 -0.287314 2.279213 -1.312441 2.822274 -2.701206 1.736721 -0.779509 1.838714 -8.199580 -1.251998 -8.091933 8.395136 3.565741 -8.544074 -0.313113 -23.646669 2.710886 -5.298291 -58.555203 -3.660099 28.992973 -1.048696 -18.108649 20.278449 -9.664020 -7.718650 17.010032 25.505977 3.539209 -2.379336 53.133493 3.488046 21.790100 0.403540 12.709841 8.658786 6.134548 2.740591 8.304081 
0.444534 0.177762 0.990129 91.058444 2.462669 94.200515 4.866896 2.982211 -1.595917 2.770863 -5.029383 -6.588594 -1.136718 9.406287 -3.719122 0.000000 -0.000000 0.000000 -1.654172 -2.790405 -4.280521 -1.228062 3.579440 0.425784 5.287488 -6.093570 -4.579939 0.000000 -0.000000 0.000000 -0.270061 2.288476 -1.301612 2.831381 -2.674938 1.816456 -0.789955 1.819419 -8.235809 -1.238811 -8.065266 8.379251 3.509766 -8.601975 -0.426550 -23.702048 2.726069 -5.326669 -58.500541 -3.611509 28.982313 -0.948916 -18.202070 20.227187 -9.788483 -7.633046 17.081829 25.491093 3.479623 -2.457314 53.247306 3.450011 21.821715 0.364670 12.745620 8.698175 6.215184 2.677080 8.340694 
0.444489 0.177675 0.990061 91.069059 2.463971 94.201268 4.864718 2.960590 -1.632855 2.771285 -4.920039 -6.511750 -1.134449 9.290588 -3.760878 0.000000 -0.000000 0.000000 -1.666451 -2.816051 -4.297036 -1.213275 3.515301 0.469744 5.253046 -6.009048 -4.539854 0.000000 -0.000000 0.000000 -0.325506 2.278596 -1.329613 2.912566 -2.676331 1.742070 -0.768546 1.685330 -8.060669 -1.071032 -7.821039 8.217552 3.337912 -8.686608 -0.433991 -23.694780 2.972024 -5.467692 -58.578009 -3.656356 28.913953 -0.965377 -18.192381 20.480806 -10.009456 -7.677620 17.118425 25.807015 2.824764 -2.836022 52.976682 3.729438 21.657465 0.306964 12.867594 9.495620 6.706560 2.472471 8.794704 
0.444517 0.177623 0.989979 91.053121 2.446475 94.180932 4.834023 2.926555 -1.602724 2.782440 -4.887617 -6.512633 -1.144124 9.296392 -3.785640 0.000000 -0.000000 0.000000 -1.689146 -2.802104 -4.284469 -1.216480 3.516837 0.490801 5.297491 -5.982037 -4.522198 0.000000 -0.000000 0.000000 -0.372247 2.240794 -1.302108 2.915870 -2.671641 1.641208 -0.749979 1.729959 -7.953577 -1.079870 -7.805823 8.167707 3.288963 -8.641352 -0.407502 -23.598276 2.984095 -5.460771 -58.671871 -3.640707 28.917606 -1.049740 -18.165806 20.613093 -9.930259 -7.769397 16.932570 25.789376 2.756918 -2.778486 52.973482 3.829432 21.592112 0.371864 12.863371 9.644406 6.776102 2.465101 8.644155 
